<?xml version="1.0" encoding="UTF-8" standalone="no"?><!DOCTYPE svg PUBLIC "-//W3C//DTD SVG 1.1//EN" "http://www.w3.org/Graphics/SVG/1.1/DTD/svg11.dtd"><svg width="100%" height="100%" viewBox="0 0 59 67" version="1.1" xmlns="http://www.w3.org/2000/svg" xmlns:xlink="http://www.w3.org/1999/xlink" xml:space="preserve" xmlns:serif="http://www.serif.com/" style="fill-rule:evenodd;clip-rule:evenodd;stroke-linejoin:round;stroke-miterlimit:2;"><path d="M20.833,8.333c0,-2.304 -1.862,-4.166 -4.166,-4.166c-2.305,-0 -4.167,1.862 -4.167,4.166l-0,8.334l-8.333,-0c-2.305,-0 -4.167,1.862 -4.167,4.166c-0,2.305 1.862,4.167 4.167,4.167l12.5,0c2.304,0 4.166,-1.862 4.166,-4.167l0,-12.5Zm-16.666,33.334c-2.305,-0 -4.167,1.862 -4.167,4.166c-0,2.305 1.862,4.167 4.167,4.167l8.333,0l-0,8.333c-0,2.305 1.862,4.167 4.167,4.167c2.304,0 4.166,-1.862 4.166,-4.167l0,-12.5c0,-2.304 -1.862,-4.166 -4.166,-4.166l-12.5,-0Zm41.666,-33.334c0,-2.304 -1.862,-4.166 -4.166,-4.166c-2.305,-0 -4.167,1.862 -4.167,4.166l0,12.5c0,2.305 1.862,4.167 4.167,4.167l12.5,0c2.304,0 4.166,-1.862 4.166,-4.167c0,-2.304 -1.862,-4.166 -4.166,-4.166l-8.334,-0l0,-8.334Zm-4.166,33.334c-2.305,-0 -4.167,1.862 -4.167,4.166l0,12.5c0,2.305 1.862,4.167 4.167,4.167c2.304,0 4.166,-1.862 4.166,-4.167l0,-8.333l8.334,0c2.304,0 4.166,-1.862 4.166,-4.167c0,-2.304 -1.862,-4.166 -4.166,-4.166l-12.5,-0Z" style="fill:#fff;fill-rule:nonzero;"/></svg>