<?xml version="1.0" encoding="UTF-8" standalone="no"?><!DOCTYPE svg PUBLIC "-//W3C//DTD SVG 1.1//EN" "http://www.w3.org/Graphics/SVG/1.1/DTD/svg11.dtd"><svg width="100%" height="100%" viewBox="0 0 100 100" version="1.1" xmlns="http://www.w3.org/2000/svg" xmlns:xlink="http://www.w3.org/1999/xlink" xml:space="preserve" xmlns:serif="http://www.serif.com/" style="fill-rule:evenodd;clip-rule:evenodd;stroke-linejoin:round;stroke-miterlimit:2;"><path d="M66.667,54.167l-0,-8.334l16.666,0l0,8.334l-16.666,-0Zm5,29.166l-13.334,-10l5,-6.666l13.334,10l-5,6.666Zm-8.334,-50l-5,-6.666l13.334,-10l5,6.666l-13.334,10Zm-50.833,29.167l0,-25l16.667,0l20.833,-20.833l0,66.666l-20.833,-20.833l-16.667,0Zm29.167,-25.625l-8.959,8.958l-11.875,0l0,8.334l11.875,-0l8.959,8.958l-0,-26.25Z" style="fill:#fff;fill-rule:nonzero;"/></svg>